<svg width="1006" height="572" xmlns="http://www.w3.org/2000/svg" xmlns:xlink="http://www.w3.org/1999/xlink" overflow="hidden"><defs><clipPath id="clip0"><path d="M150 127 1156 127 1156 699 150 699Z" fill-rule="evenodd" clip-rule="evenodd"/></clipPath></defs><g clip-path="url(#clip0)" transform="translate(-150 -127)"><path d="M150 413C150 255.599 277.823 128 435.5 128 593.177 128 721 255.599 721 413 721 570.401 593.177 698 435.5 698 277.823 698 150 570.401 150 413Z" fill="#FFD700" fill-rule="evenodd"/><path d="M659 414C659 277.033 770.033 166 907 166 1043.97 166 1155 277.033 1155 414 1155 550.967 1043.97 662 907 662 770.033 662 659 550.967 659 414Z" fill="#002865" fill-rule="evenodd" fill-opacity="0.85098"/></g></svg>