<svg width="364" height="462" xmlns="http://www.w3.org/2000/svg" xmlns:xlink="http://www.w3.org/1999/xlink" overflow="hidden"><defs><clipPath id="clip0"><path d="M267 107 631 107 631 569 267 569Z" fill-rule="evenodd" clip-rule="evenodd"/></clipPath></defs><g clip-path="url(#clip0)" transform="translate(-267 -107)"><path d="M410.664 432.968C418.105 275.996 425.546 119.023 439.907 109.581 454.269 100.139 475.551 238.227 496.832 376.316" stroke="#000000" stroke-width="2" stroke-miterlimit="8" fill="none" fill-rule="evenodd"/><path d="M421 237.864C419.886 234.965 418.773 232.066 416.757 232.001 414.742 231.935 410.287 236.561 408.908 237.473 407.529 238.385 408.007 237.929 408.484 237.473" stroke="#000000" stroke-width="2" stroke-miterlimit="8" fill="none" fill-rule="evenodd"/><path d="M419.231 239.727C416.008 238.369 415.357 238.924 414.214 239.602 413.072 240.281 412.377 243.798 412.377 243.798L412.322 242.337 412.455 242.036" stroke="#000000" stroke-width="2" stroke-miterlimit="8" fill="none" fill-rule="evenodd"/><path d="M9.55779 4.69135C8.73897 2.37197 7.92014 0.0525967 6.43849 0.000492479 4.9568-0.0516118 1.68153 3.64897 0.667777 4.37863-0.345973 5.10829 0.00491229 4.74346 0.355846 4.37863" stroke="#000000" stroke-width="2" stroke-miterlimit="8" fill="none" fill-rule="evenodd" transform="matrix(0.21763 -0.976031 -0.976031 -0.21763 423.611 251.572)"/><path d="M419.5 239.5C419.5 237.843 420.843 236.5 422.5 236.5 424.157 236.5 425.5 237.843 425.5 239.5 425.5 241.157 424.157 242.5 422.5 242.5 420.843 242.5 419.5 241.157 419.5 239.5Z" stroke="#000000" stroke-width="1.33333" stroke-miterlimit="8" fill-rule="evenodd"/><path d="M412 251C414.32 249.646 416.641 248.292 417.846 246.938 419.051 245.583 418.872 243.865 419.231 242.875 419.59 241.885 419.795 241.443 420 241" stroke="#000000" stroke-width="2" stroke-miterlimit="8" fill="none" fill-rule="evenodd"/><path d="M438.5 112.5C438.5 110.291 440.067 108.5 442 108.5 443.933 108.5 445.5 110.291 445.5 112.5 445.5 114.709 443.933 116.5 442 116.5 440.067 116.5 438.5 114.709 438.5 112.5Z" stroke="#000000" stroke-width="1.33333" stroke-miterlimit="8" fill-rule="evenodd"/><path d="M411 439.965C415.632 427.82 420.265 415.674 422.912 415.018 425.559 414.361 426.442 431.868 426.883 436.026 427.324 440.184 426.441 440.074 425.559 439.965" stroke="#000000" stroke-width="2" stroke-miterlimit="8" fill="none" fill-rule="evenodd"/><path d="M411 441C417.889 453.155 424.777 465.31 430.999 466.9 437.221 468.491 448.332 450.542 448.332 450.542 451.221 448.043 449.777 449.974 448.332 451.905" stroke="#000000" stroke-width="2" stroke-miterlimit="8" fill="none" fill-rule="evenodd"/><path d="M0 8.98742C8.68588 4.6151 17.3718 0.242781 22.3351 0.00643891 27.2985-0.229903 28.953 6.07253 29.7802 7.56937 30.6073 9.06621 28.9528 9.0268 27.2985 8.98742" stroke="#000000" stroke-width="2" stroke-miterlimit="8" fill="none" fill-rule="evenodd" transform="matrix(-1 -8.74228e-08 -8.74228e-08 1 494 353)"/><path d="M0 0C6.88882 5.61986 13.7777 11.2398 20 11.9751 26.2223 12.7104 37.3333 4.41188 37.3333 4.41188 40.2223 3.2564 38.7777 4.14925 37.3333 5.04215" stroke="#000000" stroke-width="2" stroke-miterlimit="8" fill="none" fill-rule="evenodd" transform="matrix(-0.74381 0.668392 0.668392 0.74381 493.909 361.856)"/><path d="M0 2.53266C-4.28586e-16 1.13391 1.13391 -4.28587e-16 2.53266 -8.57175e-16L51.3297 0C52.7284 -8.57175e-16 53.8623 1.13391 53.8623 2.53266L53.8623 12.6632C53.8623 14.0619 52.7283 15.1959 51.3296 15.1959L2.53266 15.1958C1.13391 15.1958 0 14.0619 0 12.6631Z" fill="#3B3838" fill-rule="evenodd" transform="matrix(0.170681 0.985326 0.985326 -0.170681 489.983 307.294)"/><path d="M2.82061 107.546C-11.4613 71.8468 33.7059 43.8997 22.5917 8.84256 29.2101-2.25155 51.1293-3.40909 59.2347 8.24142L78.0394 107.546C52.9665 107.546 20.1875 116.723 2.82061 107.546Z" fill="#E7E6E6" fill-rule="evenodd" transform="matrix(0.963512 0.267664 0.267664 -0.963512 465.621 423.729)"/><path d="M10.6605 0C25.8951 5.97785 43.4551 4.5045 56.8582 1.96741 62.7453 1.96741 66.4726 9.40223 66.264 13.6118 66.0554 17.8214 61.4905 27.2236 55.6035 27.2236L10.6605 27.2236C4.77346 27.2236 0 21.1298 0 13.6118 0 6.09381 4.77346 0 10.6605 0Z" fill="#3B3838" fill-rule="evenodd" transform="matrix(-0.291139 0.956681 0.956681 0.291139 493.454 408.974)"/><path d="M521.037 259.108C536.604 259.428 552.876 269.826 560.708 284.46 568.54 299.095 565.98 314.316 554.467 321.572 542.954 328.828 523.391 330.407 509.599 319.528 530.457 318.599 537.622 286.331 521.037 259.108Z" fill="#002865" fill-rule="evenodd"/><path d="M491.504 329.123 491.504 329.123C492.327 320.938 502.598 318.66 513.026 316.317 530.493 312.394 548.756 313.267 563.4 321.384 572.554 326.457 582.765 330.034 581.942 338.219L581.942 338.219C580.558 346.534 571.557 349.749 560.419 351.025 541.522 352.671 528.793 349.091 510.011 345.255 499.198 341.475 490.68 337.309 491.504 329.123Z" fill="#AFABAB" fill-rule="evenodd"/><path d="M549.354 351.038 542.534 349.405C531.905 346.861 524.787 338.543 526.634 330.827L540.378 273.41 545.457 267.295C558.776 273.26 574.383 280.604 585.14 286.623L583.773 289.664C579.83 307 575.886 324.336 571.943 341.672 570.096 349.389 559.983 353.582 549.354 351.038Z" fill="#3B3838" fill-rule="evenodd"/><path d="M554.542 346.579 549.084 343.915C540.58 339.765 537.05 329.507 541.2 321.002L563.519 275.266 562.729 275.29C575.695 280.686 587.425 287.068 599.774 292.958L599.774 292.958 577.455 338.694C573.305 347.199 563.046 350.729 554.542 346.579Z" fill="#AFABAB" fill-rule="evenodd"/><path d="M18.9782 0C29.7289 0 41.0659 5.4487 51.2304 0 65.7625 1.48601 66.3967 5.73693 66.3967 12.8139L66.3967 25.6277 66.3967 25.6277C45.5351 25.6277 14.0463 35.1342 3.81181 25.6277L0.868981 22.5614C0.566518 15.8084-1.04237 12.3882 1.07847 8.16049 3.00432 2.00693 10.602 0 18.9782 0Z" fill="#002865" fill-rule="evenodd" transform="matrix(-0.438559 0.898703 0.898703 0.438559 508.459 412.498)"/><path d="M608.432 309.182 524.038 482.123C521.426 487.476 514.97 489.697 509.617 487.085L499.926 482.356 593.779 290.032 603.47 294.761C608.822 297.373 611.044 303.829 608.432 309.182Z" fill="#3B3838" fill-rule="evenodd"/><path d="M0 0.799989C-1.52242e-16 0.358167 0.358167 0 0.799988 0L18.3329 0C18.7747 -1.52243e-16 19.1329 0.358167 19.1329 0.799989L19.1329 3.99991C19.1329 4.44173 18.7747 4.79989 18.3329 4.79989L0.799988 4.79989C0.358167 4.79989 0 4.44173 0 3.99991Z" fill="#3B3838" fill-rule="evenodd" transform="matrix(0.98236 -0.186999 -0.186999 -0.98236 491.113 364.432)"/><path d="M0 0.799989C-1.43667e-16 0.358167 0.358166 -1.43667e-16 0.799986 -2.87335e-16L17.2552 0C17.6971 -2.87335e-16 18.0552 0.358167 18.0552 0.799989L18.0552 3.99991C18.0552 4.44173 17.6971 4.7999 17.2552 4.7999L0.799986 4.7999C0.358166 4.7999 0 4.44173 0 3.99991Z" fill="#3B3838" fill-rule="evenodd" transform="matrix(0.98236 -0.186999 -0.186999 -0.98236 494.392 378.409)"/><path d="M0 0.799989C-1.43667e-16 0.358167 0.358166 -1.43667e-16 0.799986 -2.87335e-16L17.2552 0C17.6971 -2.87335e-16 18.0552 0.358167 18.0552 0.799989L18.0552 3.99991C18.0552 4.44173 17.6971 4.7999 17.2552 4.7999L0.799986 4.7999C0.358166 4.7999 0 4.44173 0 3.99991Z" fill="#3B3838" fill-rule="evenodd" transform="matrix(0.98236 -0.186999 -0.186999 -0.98236 496.77 391.392)"/><path d="M622.655 319.157 604.198 357.106C600.919 363.85 592.793 366.658 586.049 363.378L573.838 357.439 604.172 295.069 616.383 301.008C623.127 304.288 625.935 312.414 622.655 319.157Z" fill="#3B3838" fill-rule="evenodd"/><path d="M574.178 393.679 536.296 483.68C533.387 490.592 525.425 493.837 518.513 490.928L505.998 485.66 554.416 370.629 566.931 375.896C573.843 378.806 577.087 386.767 574.178 393.679Z" fill="#3B3838" fill-rule="evenodd"/><path d="M616.811 306.992 630.019 323.915 608.557 324.327Z" fill="#3B3838" fill-rule="evenodd"/><path d="M608.846 323.95 622.053 340.872 600.591 341.284Z" fill="#3B3838" fill-rule="evenodd"/><path d="M600.9 340.557 614.108 357.479 592.646 357.892Z" fill="#3B3838" fill-rule="evenodd"/><path d="M547.503 433.242 561.693 449.35 540.293 451.037Z" fill="#3B3838" fill-rule="evenodd"/><path d="M540.559 450.642 554.748 466.75 533.348 468.437Z" fill="#3B3838" fill-rule="evenodd"/><path d="M533.614 467.692 547.804 483.8 526.404 485.487Z" fill="#3B3838" fill-rule="evenodd"/><path d="M568.372 383.465 582.561 399.572 561.161 401.259Z" fill="#3B3838" fill-rule="evenodd"/><path d="M561.427 400.865 575.617 416.973 554.217 418.66Z" fill="#3B3838" fill-rule="evenodd"/><path d="M554.483 417.915 568.672 434.023 547.272 435.71Z" fill="#3B3838" fill-rule="evenodd"/><path d="M386.485 383.619C387.84 383.271 389.22 384.087 389.568 385.442L401.699 432.707C402.047 434.062 401.23 435.442 399.875 435.79L390.063 438.308C388.708 438.656 387.328 437.84 386.98 436.485L374.849 389.22C374.501 387.865 375.318 386.485 376.672 386.137Z" fill="#3B3838" fill-rule="evenodd"/><path d="M387.992 398.292C421.8 416.608 404.942 466.976 435.903 486.824 437.908 499.586 421.795 514.491 408.114 510.716L330.159 446.388C349.437 430.356 368.772 402.341 387.992 398.292Z" fill="#E7E6E6" fill-rule="evenodd"/><path d="M434.505 485.168C440.028 500.573 452.692 512.826 463.422 521.25 467.296 525.683 464.15 533.382 460.843 535.994 457.536 538.607 447.452 541.357 443.578 536.924L414.005 503.081C410.131 498.648 411.579 491.044 417.24 486.097 422.901 481.15 430.631 480.735 434.505 485.168Z" fill="#3B3838" fill-rule="evenodd"/><path d="M66.2576 54.5226C53.8366 63.9127 34.6215 65.8251 19.4089 59.1854 4.19627 52.5455-3.22048 39.0091 1.32595 26.1821 5.87238 13.355 20.2543 0 37.8202 0 22.0188 13.6473 36.3766 43.4202 66.2576 54.5226Z" fill="#002865" fill-rule="evenodd" transform="matrix(0.461946 -0.886908 -0.886908 -0.461946 358.598 435.737)"/><path d="M16.7369 0 16.7369 0C24.9634 0 28.2584 9.99196 31.6323 20.133 37.2837 37.1197 38.2428 55.3779 31.6322 70.7615 27.5005 80.3765 24.9633 90.8945 16.7368 90.8945L16.7369 90.8944C8.32484 90.3501 4.22586 81.7157 1.84138 70.7613-1.68784 52.1237 0.601353 39.1005 2.53812 20.029 5.21676 8.89155 8.51028 0 16.7369 0Z" fill="#AFABAB" fill-rule="evenodd" transform="matrix(-0.499476 -0.866328 -0.866328 0.499476 404.867 418.02)"/><path d="M19.8065 0 26.82 0C37.7485 0 46.6077 6.43202 46.6077 14.3664L46.6077 73.4046 43.0914 80.5346C28.7502 77.8335 11.8623 74.3247 0 70.9752L0.621088 67.6995C0.420389 49.9218 0.219553 32.1441 0.018854 14.3664 0.018854 6.43202 8.87803 0 19.8065 0Z" fill="#3B3838" fill-rule="evenodd" transform="matrix(0.791391 -0.61131 -0.61131 -0.791391 337.066 459.348)"/><path d="M17.1342 0 23.207 0C32.67 0 40.3412 7.67118 40.3412 17.1342L40.3412 68.026 41.0409 67.6582C27.0216 68.495 13.6803 67.9034 0 68.026L0 68.026 0 17.1342C0 7.67118 7.67118 0 17.1342 0Z" fill="#AFABAB" fill-rule="evenodd" transform="matrix(0.639648 -0.768668 -0.768668 -0.639648 335.221 458.472)"/><path d="M429.84 498.65C438.104 505.527 443.333 516.967 454.631 519.28 464.851 529.718 462.62 533.391 458.093 538.831L449.896 548.68 449.896 548.68C433.861 535.336 403.576 522.502 401.789 508.648L401.489 504.409C405.576 499.024 406.527 495.366 410.861 493.473 416.278 489.975 423.402 493.292 429.84 498.65Z" fill="#002865" fill-rule="evenodd"/><path d="M10.7836 0 203.218 0C209.174-1.70284e-15 214.002 4.82802 214.002 10.7837L214.002 21.5671 0 21.5671 0 10.7837C0 4.82802 4.828-3.40568e-15 10.7836-3.40568e-15Z" fill="#3B3838" fill-rule="evenodd" transform="matrix(0.768668 0.639649 0.639649 -0.768668 273.403 426.41)"/><path d="M411.164 434.781C411.267 435.211 411.002 435.643 410.572 435.745L393.52 439.822C393.09 439.925 392.658 439.66 392.556 439.23L391.812 436.118C391.709 435.688 391.974 435.256 392.404 435.154L409.456 431.077C409.886 430.974 410.317 431.239 410.42 431.669Z" fill="#3B3838" fill-rule="evenodd"/><path d="M413.909 448.873C414.011 449.303 413.746 449.735 413.317 449.837L397.312 453.663C396.883 453.766 396.451 453.501 396.348 453.071L395.604 449.959C395.502 449.529 395.767 449.098 396.196 448.995L412.201 445.169C412.63 445.066 413.062 445.331 413.165 445.761Z" fill="#3B3838" fill-rule="evenodd"/><path d="M417.067 461.689C417.17 462.119 416.905 462.551 416.475 462.653L400.471 466.479C400.041 466.582 399.609 466.317 399.507 465.887L398.763 462.775C398.66 462.345 398.925 461.914 399.355 461.811L415.359 457.985C415.789 457.882 416.22 458.147 416.323 458.577Z" fill="#3B3838" fill-rule="evenodd"/><path d="M13.5786 0 55.7774 0C63.2767-4.41497e-15 69.356 6.07934 69.356 13.5786L69.356 27.1572 0 27.1572 0 13.5786C-2.20749e-15 6.07934 6.07934-2.20749e-15 13.5786-4.41497e-15Z" fill="#3B3838" fill-rule="evenodd" transform="matrix(0.76782 0.640665 0.640665 -0.76782 262.388 439.541)"/><path d="M13.5786 0 111.227 0C118.726-3.97237e-15 124.806 6.07937 124.806 13.5787L124.806 27.1572 0 27.1572 0 13.5787C-3.97235e-15 6.07937 6.07935-3.97237e-15 13.5786-3.97237e-15Z" fill="#3B3838" fill-rule="evenodd" transform="matrix(0.731938 0.681371 0.681371 -0.731938 337.659 487.06)"/><path d="M0 19.2 9.6 0 19.2 19.2Z" fill="#3B3838" fill-rule="evenodd" transform="matrix(0.762506 0.646981 0.646981 -0.762506 260.73 449.389)"/><path d="M0 19.2 9.6 0 19.2 19.2Z" fill="#3B3838" fill-rule="evenodd" transform="matrix(0.762506 0.646981 0.646981 -0.762506 274.952 461.585)"/><path d="M0 19.2 9.6 0 19.2 19.2Z" fill="#3B3838" fill-rule="evenodd" transform="matrix(0.762506 0.646981 0.646981 -0.762506 289.011 473.471)"/><path d="M0 19.2 9.6 0 19.2 19.2Z" fill="#3B3838" fill-rule="evenodd" transform="matrix(0.722728 0.691132 0.691132 -0.722728 374.887 535.324)"/><path d="M0 19.2 9.6 0 19.2 19.2Z" fill="#3B3838" fill-rule="evenodd" transform="matrix(0.722728 0.691132 0.691132 -0.722728 388.359 548.343)"/><path d="M0 19.2 9.6 0 19.2 19.2Z" fill="#3B3838" fill-rule="evenodd" transform="matrix(0.722728 0.691132 0.691132 -0.722728 401.687 561.043)"/><path d="M0 19.2 9.6 0 19.2 19.2Z" fill="#3B3838" fill-rule="evenodd" transform="matrix(0.722728 0.691132 0.691132 -0.722728 335.432 498.491)"/><path d="M0 19.2 9.6 0 19.2 19.2Z" fill="#3B3838" fill-rule="evenodd" transform="matrix(0.722728 0.691132 0.691132 -0.722728 348.904 511.51)"/><path d="M0 19.2 9.6 0 19.2 19.2Z" fill="#3B3838" fill-rule="evenodd" transform="matrix(0.722728 0.691132 0.691132 -0.722728 362.233 524.21)"/></g></svg>