<svg width="817" height="276" xmlns="http://www.w3.org/2000/svg" xmlns:xlink="http://www.w3.org/1999/xlink" overflow="hidden"><defs><clipPath id="clip0"><path d="M237 158 1054 158 1054 434 237 434Z" fill-rule="evenodd" clip-rule="evenodd"/></clipPath></defs><g clip-path="url(#clip0)" transform="translate(-237 -158)"><path d="M340.979 237.976C340.979 244.604 336.054 249.976 329.979 249.976 323.904 249.976 318.979 244.604 318.979 237.976 318.979 231.348 323.904 225.976 329.979 225.976 336.054 225.976 340.979 231.348 340.979 237.976Z" fill="#FFD700" fill-rule="evenodd"/><path d="M357.978 242.476C357.978 246.617 355.292 249.976 351.978 249.976 348.664 249.976 345.978 246.617 345.978 242.476 345.978 238.334 348.664 234.976 351.978 234.976 355.292 234.976 357.978 238.334 357.978 242.476Z" fill="#FFD700" fill-rule="evenodd"/><path d="M369.978 251.474C369.978 255.064 367.739 257.974 364.978 257.974 362.217 257.974 359.978 255.064 359.978 251.474 359.978 247.884 362.217 244.974 364.978 244.974 367.739 244.974 369.978 247.884 369.978 251.474Z" fill="#FFD700" fill-rule="evenodd"/><path d="M376.981 262.477C376.981 264.961 375.414 266.977 373.481 266.977 371.548 266.977 369.981 264.961 369.981 262.477 369.981 259.992 371.548 257.977 373.481 257.977 375.414 257.977 376.981 259.992 376.981 262.477Z" fill="#FFD700" fill-rule="evenodd"/><path d="M384.978 271.477C384.978 273.961 383.187 275.977 380.978 275.977 378.769 275.977 376.978 273.961 376.978 271.477 376.978 268.992 378.769 266.977 380.978 266.977 383.187 266.977 384.978 268.992 384.978 271.477Z" fill="#FFD700" fill-rule="evenodd"/><path d="M343.087 257.978C328.989 257.978 319.347 257.394 321.21 274.974 324.871 309.518 435.342 290.397 329.943 363.229 318.721 370.983 343.327 388.824 350.379 384.231 357.431 379.638 372.256 352.425 372.256 335.673 372.256 318.92 381.98 316.735 381.98 294.398 381.98 278.616 357.186 257.978 343.087 257.978Z" fill="#FFD700" fill-rule="evenodd"/><path d="M21.6711 12.2466C21.6711 19.0097 16.8212 24.4922 10.8385 24.4922 4.85574 24.4922 0.00573591 19.0097 0.00573591 12.2466 0.00573591 5.48343 4.85574 0.000890055 10.8385 0.000890055 16.8212 0.000890055 21.6711 5.48343 21.6711 12.2466Z" fill="#FFD700" fill-rule="evenodd" transform="matrix(-1 -3.89414e-07 -3.89414e-07 1 314.208 169.935)"/><path d="M12.2495 7.53768C12.2495 11.6996 9.50826 15.0735 6.12674 15.0735 2.74513 15.0735 0.0038569 11.6996 0.0038569 7.53768 0.0038569 3.37578 2.74513 0.00187901 6.12674 0.00187901 9.50826 0.00187901 12.2495 3.37578 12.2495 7.53768Z" fill="#FFD700" fill-rule="evenodd" transform="matrix(-1 -3.89414e-07 -3.89414e-07 1 286.891 179.355)"/><path d="M10.3643 6.12585C10.3643 9.50737 8.04478 12.2486 5.18346 12.2486 2.32214 12.2486 0.00257126 9.50737 0.00257126 6.12585 0.00257126 2.74424 2.32214 0.00296685 5.18346 0.00296685 8.04478 0.00296685 10.3643 2.74424 10.3643 6.12585Z" fill="#FFD700" fill-rule="evenodd" transform="matrix(-1 -3.89414e-07 -3.89414e-07 1 272.761 189.716)"/><path d="M6.59568 4.71412C6.59568 7.31535 5.11968 9.42399 3.29883 9.42399 1.47798 9.42399 0.001879 7.31535 0.001879 4.71412 0.001879 2.11299 1.47798 0.00425248 3.29883 0.00425248 5.11968 0.00425248 6.59568 2.11299 6.59568 4.71412Z" fill="#FFD700" fill-rule="evenodd" transform="matrix(-1 -3.89414e-07 -3.89414e-07 1 262.399 201.962)"/><path d="M7.53684 4.71511C7.53684 7.31634 5.8499 9.42498 3.76896 9.42498 1.68803 9.42498 0.00108784 7.31634 0.00108784 4.71511 0.00108784 2.11398 1.68803 0.00524143 3.76896 0.00524143 5.8499 0.00524143 7.53684 2.11398 7.53684 4.71511Z" fill="#FFD700" fill-rule="evenodd" transform="matrix(-1 -3.89414e-07 -3.89414e-07 1 255.805 211.382)"/><path d="M22.1915 0.00652707C8.04006 0.00652707-1.6376-0.582393 0.232403 17.1506 3.90704 51.9967 114.792 32.7081 8.99825 106.175-2.26588 113.998 22.4324 131.995 29.5111 127.362 36.5898 122.728 51.4702 95.2784 51.4702 78.3789 51.4702 61.4799 61.2297 59.2757 61.2297 36.7436 61.2297 20.8242 36.3428 0.00652707 22.1915 0.00652707Z" fill="#FFD700" fill-rule="evenodd" transform="matrix(-1 -3.89414e-07 -3.89414e-07 1 312.324 201.962)"/><path d="M330.98 231.976C330.98 238.604 326.055 243.976 319.98 243.976 313.905 243.976 308.98 238.604 308.98 231.976 308.98 225.348 313.905 219.976 319.98 219.976 326.055 219.976 330.98 225.348 330.98 231.976Z" fill="#002865" fill-rule="evenodd"/><path d="M347.98 236.476C347.98 240.617 345.294 243.976 341.98 243.976 338.666 243.976 335.98 240.617 335.98 236.476 335.98 232.334 338.666 228.976 341.98 228.976 345.294 228.976 347.98 232.334 347.98 236.476Z" fill="#002865" fill-rule="evenodd"/><path d="M359.98 244.976C359.98 248.29 357.742 250.976 354.98 250.976 352.218 250.976 349.98 248.29 349.98 244.976 349.98 241.662 352.218 238.976 354.98 238.976 357.742 238.976 359.98 241.662 359.98 244.976Z" fill="#002865" fill-rule="evenodd"/><path d="M367.978 255.976C367.978 258.738 366.187 260.976 363.978 260.976 361.769 260.976 359.978 258.738 359.978 255.976 359.978 253.215 361.769 250.976 363.978 250.976 366.187 250.976 367.978 253.215 367.978 255.976Z" fill="#002865" fill-rule="evenodd"/><path d="M373.981 265.974C373.981 268.735 372.638 270.974 370.981 270.974 369.325 270.974 367.981 268.735 367.981 265.974 367.981 263.213 369.325 260.974 370.981 260.974 372.638 260.974 373.981 263.213 373.981 265.974Z" fill="#002865" fill-rule="evenodd"/><path d="M333.449 250.978C319.12 250.978 309.32 250.39 311.213 268.107 314.934 302.924 427.217 283.651 320.09 357.056 308.684 364.873 333.693 382.854 340.861 378.225 348.029 373.595 363.097 346.169 363.097 329.284 363.097 312.4 372.979 310.196 372.979 287.683 372.979 271.778 347.779 250.978 333.449 250.978Z" fill="#002865" fill-rule="evenodd"/><path d="M21.6701 12.246C21.6701 19.0091 16.8201 24.4916 10.8374 24.4916 4.85465 24.4916 0.00464806 19.0091 0.00464806 12.246 0.00464806 5.48284 4.85465 0.000296685 10.8374 0.000296685 16.8201 0.000296685 21.6701 5.48284 21.6701 12.246Z" fill="#002865" fill-rule="evenodd" transform="matrix(-1 -3.89414e-07 -3.89414e-07 1 303.846 164.283)"/><path d="M12.2485 7.53709C12.2485 11.699 9.50727 15.0729 6.12575 15.0729 2.74414 15.0729 0.00286795 11.699 0.00286795 7.53709 0.00286795 3.37519 2.74414 0.00128564 6.12575 0.00128564 9.50727 0.00128564 12.2485 3.37519 12.2485 7.53709Z" fill="#002865" fill-rule="evenodd" transform="matrix(-1 -3.89414e-07 -3.89414e-07 1 277.471 173.703)"/><path d="M9.42132 6.12526C9.42132 9.50677 7.31268 12.248 4.71145 12.248 2.11032 12.248 0.00158232 9.50677 0.00158232 6.12526 0.00158232 2.74364 2.11032 0.00237348 4.71145 0.00237348 7.31268 0.00237348 9.42132 2.74364 9.42132 6.12526Z" fill="#002865" fill-rule="evenodd" transform="matrix(-1 -3.89414e-07 -3.89414e-07 1 262.399 184.064)"/><path d="M7.53654 4.71353C7.53654 7.31476 5.8496 9.4234 3.76867 9.4234 1.68773 9.4234 0.000791155 7.31476 0.000791155 4.71353 0.000791155 2.11239 1.68773 0.00365911 3.76867 0.00365911 5.8496 0.00365911 7.53654 2.11239 7.53654 4.71353Z" fill="#002865" fill-rule="evenodd" transform="matrix(-1 -3.89414e-07 -3.89414e-07 1 252.979 196.31)"/><path d="M7.53575 4.71452C7.53575 7.31575 5.84881 9.42439 3.76787 9.42439 1.68694 9.42439 0 7.31575 0 4.71452 0 2.11338 1.68694 0.00464806 3.76787 0.00464806 5.84881 0.00464806 7.53575 2.11338 7.53575 4.71452Z" fill="#002865" fill-rule="evenodd" transform="matrix(-1 -3.89414e-07 -3.89414e-07 1 245.444 205.73)"/><path d="M22.1904 0.0059337C8.03897 0.0059337-1.63869-0.578635 0.231315 17.0238 3.90596 51.6138 114.791 32.467 8.99717 105.395-2.26697 113.159 22.4314 131.023 29.5101 126.424 36.5887 121.825 51.4691 94.577 51.4691 77.802 51.4691 61.0272 61.2286 58.8392 61.2286 36.4729 61.2286 20.6706 36.3417 0.0059337 22.1904 0.0059337Z" fill="#002865" fill-rule="evenodd" transform="matrix(-1 -3.89414e-07 -3.89414e-07 1 301.962 196.31)"/><text fill="#FFD700" font-family="Segoe Script,Segoe Script_MSFontService,sans-serif" font-weight="400" font-size="128" transform="translate(415.79 309)">Barefoot<tspan fill="#002865" x="-10.667" y="-6">Barefoot</tspan></text></g></svg>