<svg width="157" height="236" xmlns="http://www.w3.org/2000/svg" xmlns:xlink="http://www.w3.org/1999/xlink" overflow="hidden"><defs><clipPath id="clip0"><path d="M207 250 364 250 364 486 207 486Z" fill-rule="evenodd" clip-rule="evenodd"/></clipPath></defs><g clip-path="url(#clip0)" transform="translate(-207 -250)"><path d="M316 329C316 336.18 310.851 342 304.5 342 298.149 342 293 336.18 293 329 293 321.82 298.149 316 304.5 316 310.851 316 316 321.82 316 329Z" fill="#FFFF00" fill-rule="evenodd"/><path d="M334 334C334 338.418 331.314 342 328 342 324.686 342 322 338.418 322 334 322 329.582 324.686 326 328 326 331.314 326 334 329.582 334 334Z" fill="#FFFF00" fill-rule="evenodd"/><path d="M347 343.5C347 347.09 344.761 350 342 350 339.239 350 337 347.09 337 343.5 337 339.91 339.239 337 342 337 344.761 337 347 339.91 347 343.5Z" fill="#FFFF00" fill-rule="evenodd"/><path d="M355 355C355 357.761 353.209 360 351 360 348.791 360 347 357.761 347 355 347 352.239 348.791 350 351 350 353.209 350 355 352.239 355 355Z" fill="#FFFF00" fill-rule="evenodd"/><path d="M363 365C363 367.761 361.209 370 359 370 356.791 370 355 367.761 355 365 355 362.239 356.791 360 359 360 361.209 360 363 362.239 363 365Z" fill="#FFFF00" fill-rule="evenodd"/><path d="M318.557 350.002C303.534 350.002 293.26 349.382 295.245 368.069 299.146 404.789 416.862 384.463 304.551 461.883 292.593 470.126 318.813 489.09 326.327 484.208 333.842 479.326 349.639 450.399 349.639 432.591 349.639 414.783 360 412.46 360 388.716 360 371.94 333.58 350.002 318.557 350.002Z" fill="#FFFF00" fill-rule="evenodd"/><path d="M23 13C23 20.1797 17.8513 26 11.5 26 5.14873 26 0 20.1797 0 13 0 5.82031 5.14873 0 11.5 0 17.8513 0 23 5.82031 23 13Z" fill="#FFFF00" fill-rule="evenodd" transform="matrix(-1 -8.74228e-08 -8.74228e-08 1 288 257)"/><path d="M13 8.00002C13 12.4183 10.0899 16 6.50002 16 2.91014 16 0 12.4183 0 8.00002 0 3.58171 2.91014 0 6.50002 0 10.0899 0 13 3.58171 13 8.00002Z" fill="#FFFF00" fill-rule="evenodd" transform="matrix(-1 -8.74228e-08 -8.74228e-08 1 259 267)"/><path d="M11 6.50002C11 10.0899 8.53759 13 5.50002 13 2.46246 13 0 10.0899 0 6.50002 0 2.91018 2.46246 0 5.50002 0 8.53759 0 11 2.91018 11 6.50002Z" fill="#FFFF00" fill-rule="evenodd" transform="matrix(-1 -8.74228e-08 -8.74228e-08 1 244 278)"/><path d="M7.00004 5.00002C7.00004 7.76144 5.43302 10 3.50002 10 1.56702 10 0 7.76144 0 5.00002 0 2.2386 1.56702 0 3.50002 0 5.43302 0 7.00004 2.2386 7.00004 5.00002Z" fill="#FFFF00" fill-rule="evenodd" transform="matrix(-1 -8.74228e-08 -8.74228e-08 1 233 291)"/><path d="M8.00005 5.00002C8.00005 7.76144 6.20916 10 4.00002 10 1.79088 10 0 7.76144 0 5.00002 0 2.2386 1.79088 0 4.00002 0 6.20916 0 8.00005 2.2386 8.00005 5.00002Z" fill="#FFFF00" fill-rule="evenodd" transform="matrix(-1 -8.74228e-08 -8.74228e-08 1 226 301)"/><path d="M23.557 0.00241936C8.53382 0.00241936-1.73996-0.622761 0.245219 18.2025 4.14626 55.1952 121.862 34.7184 9.55102 112.711-2.40697 121.016 23.8128 140.121 31.3275 135.203 38.8422 130.284 54.6392 101.143 54.6392 83.2025 54.6392 65.2625 65 62.9225 65 39.0025 65 22.1025 38.58 0.00241936 23.557 0.00241936Z" fill="#FFFF00" fill-rule="evenodd" transform="matrix(-1 -8.74228e-08 -8.74228e-08 1 286 291)"/><path d="M306 323C306 330.18 300.627 336 294 336 287.373 336 282 330.18 282 323 282 315.82 287.373 310 294 310 300.627 310 306 315.82 306 323Z" fill-rule="evenodd"/><path d="M324 328C324 332.418 321.09 336 317.5 336 313.91 336 311 332.418 311 328 311 323.582 313.91 320 317.5 320 321.09 320 324 323.582 324 328Z" fill-rule="evenodd"/><path d="M337 336.5C337 340.09 334.538 343 331.5 343 328.462 343 326 340.09 326 336.5 326 332.91 328.462 330 331.5 330 334.538 330 337 332.91 337 336.5Z" fill-rule="evenodd"/><path d="M345 348.5C345 351.538 343.209 354 341 354 338.791 354 337 351.538 337 348.5 337 345.462 338.791 343 341 343 343.209 343 345 345.462 345 348.5Z" fill-rule="evenodd"/><path d="M352 359C352 361.761 350.433 364 348.5 364 346.567 364 345 361.761 345 359 345 356.239 346.567 354 348.5 354 350.433 354 352 356.239 352 359Z" fill-rule="evenodd"/><path d="M308.557 343.002C293.534 343.002 283.26 342.377 285.245 361.202 289.146 398.195 406.862 377.718 294.551 455.711 282.593 464.016 308.813 483.121 316.327 478.203 323.842 473.284 339.639 444.143 339.639 426.203 339.639 408.263 350 405.922 350 382.002 350 365.102 323.58 343.002 308.557 343.002Z" fill-rule="evenodd"/><path d="M23 13C23 20.1797 17.8513 26 11.5 26 5.14873 26 0 20.1797 0 13 0 5.82031 5.14873 0 11.5 0 17.8513 0 23 5.82031 23 13Z" fill-rule="evenodd" transform="matrix(-1 -8.74228e-08 -8.74228e-08 1 277 251)"/><path d="M13 8.00002C13 12.4183 10.0899 16 6.50002 16 2.91014 16 0 12.4183 0 8.00002 0 3.58171 2.91014 0 6.50002 0 10.0899 0 13 3.58171 13 8.00002Z" fill-rule="evenodd" transform="matrix(-1 -8.74228e-08 -8.74228e-08 1 249 261)"/><path d="M10 6.50002C10 10.0899 7.76144 13 5.00002 13 2.2386 13 0 10.0899 0 6.50002 0 2.91018 2.2386 0 5.00002 0 7.76144 0 10 2.91018 10 6.50002Z" fill-rule="evenodd" transform="matrix(-1 -8.74228e-08 -8.74228e-08 1 233 272)"/><path d="M8.00005 5.00002C8.00005 7.76144 6.20916 10 4.00002 10 1.79088 10 0 7.76144 0 5.00002 0 2.2386 1.79088 0 4.00002 0 6.20916 0 8.00005 2.2386 8.00005 5.00002Z" fill-rule="evenodd" transform="matrix(-1 -8.74228e-08 -8.74228e-08 1 223 285)"/><path d="M8.00005 5.00002C8.00005 7.76144 6.20916 10 4.00002 10 1.79088 10 0 7.76144 0 5.00002 0 2.2386 1.79088 0 4.00002 0 6.20916 0 8.00005 2.2386 8.00005 5.00002Z" fill-rule="evenodd" transform="matrix(-1 -8.74228e-08 -8.74228e-08 1 215 295)"/><path d="M23.557 0.00240157C8.53382 0.00240157-1.73996-0.618182 0.245219 18.0686 4.14626 54.7893 121.862 34.4631 9.55102 111.883-2.40697 120.126 23.8128 139.09 31.3275 134.208 38.8422 129.326 54.6392 100.399 54.6392 82.5907 54.6392 64.7826 65 62.4598 65 38.7157 65 21.94 38.58 0.00240157 23.557 0.00240157Z" fill-rule="evenodd" transform="matrix(-1 -8.74228e-08 -8.74228e-08 1 275 285)"/></g></svg>