<svg width="146" height="230" xmlns="http://www.w3.org/2000/svg" xmlns:xlink="http://www.w3.org/1999/xlink" overflow="hidden"><defs><clipPath id="clip0"><path d="M207 250 353 250 353 480 207 480Z" fill-rule="evenodd" clip-rule="evenodd"/></clipPath></defs><g clip-path="url(#clip0)" transform="translate(-207 -250)"><path d="M306 323C306 330.18 300.627 336 294 336 287.373 336 282 330.18 282 323 282 315.82 287.373 310 294 310 300.627 310 306 315.82 306 323Z" fill-rule="evenodd"/><path d="M324 328C324 332.418 321.09 336 317.5 336 313.91 336 311 332.418 311 328 311 323.582 313.91 320 317.5 320 321.09 320 324 323.582 324 328Z" fill-rule="evenodd"/><path d="M337 336.5C337 340.09 334.538 343 331.5 343 328.462 343 326 340.09 326 336.5 326 332.91 328.462 330 331.5 330 334.538 330 337 332.91 337 336.5Z" fill-rule="evenodd"/><path d="M345 348.5C345 351.538 343.209 354 341 354 338.791 354 337 351.538 337 348.5 337 345.462 338.791 343 341 343 343.209 343 345 345.462 345 348.5Z" fill-rule="evenodd"/><path d="M352 359C352 361.761 350.433 364 348.5 364 346.567 364 345 361.761 345 359 345 356.239 346.567 354 348.5 354 350.433 354 352 356.239 352 359Z" fill-rule="evenodd"/><path d="M308.557 343.002C293.534 343.002 283.26 342.377 285.245 361.202 289.146 398.195 406.862 377.718 294.551 455.711 282.593 464.016 308.813 483.121 316.327 478.203 323.842 473.284 339.639 444.143 339.639 426.203 339.639 408.263 350 405.922 350 382.002 350 365.102 323.58 343.002 308.557 343.002Z" fill-rule="evenodd"/><path d="M23 13C23 20.1797 17.8513 26 11.5 26 5.14873 26 0 20.1797 0 13 0 5.82031 5.14873 0 11.5 0 17.8513 0 23 5.82031 23 13Z" fill-rule="evenodd" transform="matrix(-1 -8.74228e-08 -8.74228e-08 1 277 251)"/><path d="M13 8.00002C13 12.4183 10.0899 16 6.50002 16 2.91014 16 0 12.4183 0 8.00002 0 3.58171 2.91014 0 6.50002 0 10.0899 0 13 3.58171 13 8.00002Z" fill-rule="evenodd" transform="matrix(-1 -8.74228e-08 -8.74228e-08 1 249 261)"/><path d="M10 6.50002C10 10.0899 7.76144 13 5.00002 13 2.2386 13 0 10.0899 0 6.50002 0 2.91018 2.2386 0 5.00002 0 7.76144 0 10 2.91018 10 6.50002Z" fill-rule="evenodd" transform="matrix(-1 -8.74228e-08 -8.74228e-08 1 233 272)"/><path d="M8.00005 5.00002C8.00005 7.76144 6.20916 10 4.00002 10 1.79088 10 0 7.76144 0 5.00002 0 2.2386 1.79088 0 4.00002 0 6.20916 0 8.00005 2.2386 8.00005 5.00002Z" fill-rule="evenodd" transform="matrix(-1 -8.74228e-08 -8.74228e-08 1 223 285)"/><path d="M8.00005 5.00002C8.00005 7.76144 6.20916 10 4.00002 10 1.79088 10 0 7.76144 0 5.00002 0 2.2386 1.79088 0 4.00002 0 6.20916 0 8.00005 2.2386 8.00005 5.00002Z" fill-rule="evenodd" transform="matrix(-1 -8.74228e-08 -8.74228e-08 1 215 295)"/><path d="M23.557 0.00240157C8.53382 0.00240157-1.73996-0.618182 0.245219 18.0686 4.14626 54.7893 121.862 34.4631 9.55102 111.883-2.40697 120.126 23.8128 139.09 31.3275 134.208 38.8422 129.326 54.6392 100.399 54.6392 82.5907 54.6392 64.7826 65 62.4598 65 38.7157 65 21.94 38.58 0.00240157 23.557 0.00240157Z" fill-rule="evenodd" transform="matrix(-1 -8.74228e-08 -8.74228e-08 1 275 285)"/></g></svg>